<?xml version="1.0" standalone="no"?>
<!DOCTYPE svg PUBLIC "-//W3C//DTD SVG 20010904//EN"
 "http://www.w3.org/TR/2001/REC-SVG-20010904/DTD/svg10.dtd">
<svg version="1.0" xmlns="http://www.w3.org/2000/svg"
 width="128.000000pt" height="128.000000pt" viewBox="0 0 128.000000 128.000000"
 preserveAspectRatio="xMidYMid meet">

<g transform="translate(0.000000,128.000000) scale(0.100000,-0.100000)"
fill="#787878" stroke="none">
<path d="M733 1075 c-28 -20 -288 -793 -279 -830 4 -14 20 -32 37 -40 59 -31
61 -26 207 411 72 220 132 407 132 416 0 17 -45 58 -64 58 -6 0 -21 -7 -33
-15z"/>
<path d="M190 796 c-166 -108 -175 -115 -178 -148 -2 -23 3 -39 15 -50 48 -43
349 -229 366 -226 11 2 29 15 40 30 35 47 20 68 -120 158 l-126 82 109 70
c131 84 154 104 154 135 0 29 -33 63 -62 63 -13 0 -102 -52 -198 -114z"/>
<path d="M850 890 c-26 -26 -25 -62 1 -86 11 -10 71 -51 132 -90 l111 -72
-120 -77 c-126 -81 -144 -97 -144 -127 0 -31 46 -70 73 -63 26 8 311 189 345
219 17 15 22 29 20 55 -3 33 -11 40 -178 147 -96 63 -185 114 -197 114 -13 0
-32 -9 -43 -20z"/>
</g>
</svg>
